<svg width="23" height="23" viewBox="0 0 23 23" fill="none" xmlns="http://www.w3.org/2000/svg">
<g opacity="0.8" clip-path="url(#clip0)">
<path d="M5.55 7.68001C5.21 7.68001 4.93 7.40001 4.93 7.06001V6.20001L4.03 6.17001C3.69 6.17001 3.41 5.89001 3.41 5.55001C3.41 5.21001 3.69 4.93001 4.03 4.93001H4.9L4.93 4.04001C4.93 3.70001 5.21 3.42001 5.55 3.42001C5.89 3.42001 6.17 3.70001 6.17 4.04001V4.90001L7.07 4.93001C7.41 4.93001 7.69 5.21001 7.69 5.55001C7.69 5.89001 7.4 6.17001 7.06 6.17001H6.2L6.17 7.06001C6.17 7.40001 5.89 7.68001 5.55 7.68001Z" fill="#8F73F8"/>
<path d="M14.11 6.16999C13.77 6.16999 13.49 5.88999 13.49 5.54999C13.49 5.20999 13.77 4.92999 14.11 4.92999H16.7C17.04 4.92999 17.32 5.20999 17.32 5.54999C17.32 5.88999 17.04 6.16999 16.7 6.16999H14.11Z" fill="#8F73F8"/>
<path d="M13.89 17.1C13.55 17.1 13.27 16.82 13.27 16.48C13.27 16.14 13.55 15.86 13.89 15.86H16.92C17.26 15.86 17.54 16.14 17.54 16.48C17.54 16.82 17.26 17.1 16.92 17.1H13.89Z" fill="#D2DCF7"/>
<path d="M13.89 14.94C13.55 14.94 13.27 14.66 13.27 14.32C13.27 13.98 13.55 13.7 13.89 13.7H16.92C17.26 13.7 17.54 13.98 17.54 14.32C17.54 14.66 17.26 14.94 16.92 14.94H13.89Z" fill="#D2DCF7"/>
<path d="M6.63 17.1C6.46 17.1 6.31 17.04 6.19 16.92L5.57 16.3L4.9 16.92C4.78 17.04 4.63 17.1 4.46 17.1C4.29 17.1 4.14 17.04 4.02 16.92C3.78 16.68 3.78 16.29 4.02 16.05L4.64 15.43L4.02 14.76C3.78 14.52 3.78 14.13 4.02 13.88C4.14 13.76 4.29 13.7 4.46 13.7C4.63 13.7 4.78 13.76 4.9 13.88L5.52 14.5L6.19 13.88C6.31 13.76 6.46 13.7 6.63 13.7C6.8 13.7 6.95 13.76 7.07 13.88C7.31 14.12 7.31 14.51 7.07 14.75L6.45 15.37L7.07 16.04C7.31 16.28 7.31 16.67 7.07 16.91C6.95 17.04 6.79 17.1 6.63 17.1Z" fill="#8F73F8"/>
<path d="M15.4 22.08C14.08 22.08 12.8 21.69 11.71 20.96H1.92C0.86 20.95 0 20.09 0 19.04V1.92C0 0.86 0.86 0 1.92 0H19.04C20.1 0 20.96 0.86 20.96 1.92V11.7C21.7 12.81 22.08 14.09 22.08 15.41C22.08 19.08 19.08 22.08 15.4 22.08ZM15.4 9.97C12.4 9.97 9.97 12.41 9.97 15.4C9.97 18.39 12.41 20.83 15.4 20.83C18.39 20.83 20.83 18.39 20.83 15.4C20.83 12.41 18.4 9.97 15.4 9.97ZM1.24 19.04C1.24 19.41 1.54 19.72 1.92 19.72H10.26C9.29 18.47 8.74 16.96 8.74 15.41C8.74 14.09 9.13 12.81 9.86 11.72V11.13L1.24 11.1V19.04V19.04ZM15.4 8.73C16.95 8.73 18.47 9.28 19.66 10.27L19.71 1.91C19.71 1.54 19.41 1.23 19.03 1.23H11.12L11.09 10.25C12.34 9.28 13.85 8.73 15.4 8.73ZM1.92 1.24C1.54 1.24 1.24 1.54 1.24 1.92V9.83L9.83 9.86L9.86 1.27L1.92 1.24Z" fill="#D2DCF7"/>
</g>
<defs>
<clipPath id="clip0">
<rect width="22.08" height="22.08" fill="white"/>
</clipPath>
</defs>
</svg>
