<svg width="20" height="24" viewBox="0 0 20 24" fill="none" xmlns="http://www.w3.org/2000/svg">
<g opacity="0.8" clip-path="url(#clip0)">
<path fill-rule="evenodd" clip-rule="evenodd" d="M7.77496 8.48999C7.77496 8.14481 8.05479 7.86499 8.39996 7.86499H15.27C15.6151 7.86499 15.895 8.14481 15.895 8.48999C15.895 8.83517 15.6151 9.11499 15.27 9.11499H8.39996C8.05479 9.11499 7.77496 8.83517 7.77496 8.48999Z" fill="#8F73F8"/>
<path fill-rule="evenodd" clip-rule="evenodd" d="M7.77496 13.2C7.77496 12.8548 8.05479 12.575 8.39996 12.575H15.27C15.6151 12.575 15.895 12.8548 15.895 13.2C15.895 13.5452 15.6151 13.825 15.27 13.825H8.39996C8.05479 13.825 7.77496 13.5452 7.77496 13.2Z" fill="#8F73F8"/>
<path fill-rule="evenodd" clip-rule="evenodd" d="M7.77496 17.91C7.77496 17.5648 8.05479 17.285 8.39996 17.285H15.27C15.6151 17.285 15.895 17.5648 15.895 17.91C15.895 18.2552 15.6151 18.535 15.27 18.535H8.39996C8.05479 18.535 7.77496 18.2552 7.77496 17.91Z" fill="#8F73F8"/>
<path fill-rule="evenodd" clip-rule="evenodd" d="M4.10498 8.48999C4.10498 8.14481 4.3848 7.86499 4.72998 7.86499H5.33998C5.68516 7.86499 5.96498 8.14481 5.96498 8.48999C5.96498 8.83517 5.68516 9.11499 5.33998 9.11499H4.72998C4.3848 9.11499 4.10498 8.83517 4.10498 8.48999Z" fill="#8F73F8"/>
<path fill-rule="evenodd" clip-rule="evenodd" d="M4.10498 13.2C4.10498 12.8548 4.3848 12.575 4.72998 12.575H5.33998C5.68516 12.575 5.96498 12.8548 5.96498 13.2C5.96498 13.5452 5.68516 13.825 5.33998 13.825H4.72998C4.3848 13.825 4.10498 13.5452 4.10498 13.2Z" fill="#8F73F8"/>
<path fill-rule="evenodd" clip-rule="evenodd" d="M4.10498 17.91C4.10498 17.5648 4.3848 17.285 4.72998 17.285H5.33998C5.68516 17.285 5.96498 17.5648 5.96498 17.91C5.96498 18.2552 5.68516 18.535 5.33998 18.535H4.72998C4.3848 18.535 4.10498 18.2552 4.10498 17.91Z" fill="#8F73F8"/>
<path d="M18.75 3.64999V22.75H1.25V3.64999H18.75ZM19 2.39999H1C0.45 2.39999 0 2.84999 0 3.39999V23C0 23.55 0.45 24 1 24H19C19.55 24 20 23.55 20 23V3.39999C20 2.84999 19.55 2.39999 19 2.39999Z" fill="#D2DCF7"/>
<path d="M13.81 3.18H6.19V0.6C6.19 0.27 6.46 0 6.79 0H13.21C13.54 0 13.81 0.27 13.81 0.6V3.18Z" fill="#D2DCF7"/>
</g>
<defs>
<clipPath id="clip0">
<rect width="20" height="24" fill="white"/>
</clipPath>
</defs>
</svg>
