<svg width="20" height="24" viewBox="0 0 20 24" fill="none" xmlns="http://www.w3.org/2000/svg">
<g clip-path="url(#clip0)">
<path fill-rule="evenodd" clip-rule="evenodd" d="M7.77502 8.48999C7.77502 8.14481 8.05485 7.86499 8.40002 7.86499H15.27C15.6152 7.86499 15.895 8.14481 15.895 8.48999C15.895 8.83517 15.6152 9.11499 15.27 9.11499H8.40002C8.05485 9.11499 7.77502 8.83517 7.77502 8.48999Z" fill="#D2DCF7"/>
<path fill-rule="evenodd" clip-rule="evenodd" d="M7.77502 13.2C7.77502 12.8548 8.05485 12.575 8.40002 12.575H15.27C15.6152 12.575 15.895 12.8548 15.895 13.2C15.895 13.5452 15.6152 13.825 15.27 13.825H8.40002C8.05485 13.825 7.77502 13.5452 7.77502 13.2Z" fill="#D2DCF7"/>
<path fill-rule="evenodd" clip-rule="evenodd" d="M7.77502 17.91C7.77502 17.5648 8.05485 17.285 8.40002 17.285H15.27C15.6152 17.285 15.895 17.5648 15.895 17.91C15.895 18.2552 15.6152 18.535 15.27 18.535H8.40002C8.05485 18.535 7.77502 18.2552 7.77502 17.91Z" fill="#D2DCF7"/>
<path fill-rule="evenodd" clip-rule="evenodd" d="M4.10501 8.48999C4.10501 8.14481 4.38483 7.86499 4.73001 7.86499H5.34001C5.68519 7.86499 5.96501 8.14481 5.96501 8.48999C5.96501 8.83517 5.68519 9.11499 5.34001 9.11499H4.73001C4.38483 9.11499 4.10501 8.83517 4.10501 8.48999Z" fill="#D2DCF7"/>
<path fill-rule="evenodd" clip-rule="evenodd" d="M4.10501 13.2C4.10501 12.8548 4.38483 12.575 4.73001 12.575H5.34001C5.68519 12.575 5.96501 12.8548 5.96501 13.2C5.96501 13.5452 5.68519 13.825 5.34001 13.825H4.73001C4.38483 13.825 4.10501 13.5452 4.10501 13.2Z" fill="#D2DCF7"/>
<path fill-rule="evenodd" clip-rule="evenodd" d="M4.10501 17.91C4.10501 17.5648 4.38483 17.285 4.73001 17.285H5.34001C5.68519 17.285 5.96501 17.5648 5.96501 17.91C5.96501 18.2552 5.68519 18.535 5.34001 18.535H4.73001C4.38483 18.535 4.10501 18.2552 4.10501 17.91Z" fill="#D2DCF7"/>
<path d="M18.75 3.64999V22.75H1.25V3.64999H18.75ZM19 2.39999H1C0.45 2.39999 0 2.84999 0 3.39999V23C0 23.55 0.45 24 1 24H19C19.55 24 20 23.55 20 23V3.39999C20 2.84999 19.55 2.39999 19 2.39999Z" fill="#D2DCF7"/>
<path d="M13.81 3.18H6.19V0.6C6.19 0.27 6.46 0 6.79 0H13.21C13.54 0 13.81 0.27 13.81 0.6V3.18Z" fill="#D2DCF7"/>
</g>
<defs>
<clipPath id="clip0">
<rect width="20" height="24" fill="white"/>
</clipPath>
</defs>
</svg>
