<svg width="23" height="23" viewBox="0 0 23 23" fill="none" xmlns="http://www.w3.org/2000/svg">
<g opacity="0.8" clip-path="url(#clip0)">
<path d="M11.14 1.25C11.36 1.25 11.57 1.32 11.76 1.45L20.55 7.81C20.85 8.03 21.03 8.39 21.03 8.77V19.62C21.03 20.26 20.54 20.78 19.93 20.78H2.35C1.74 20.78 1.25 20.26 1.25 19.62V8.77C1.25 8.39 1.43 8.03 1.73 7.81L10.52 1.45C10.7 1.32 10.92 1.25 11.14 1.25ZM11.14 0C10.65 0 10.19 0.15 9.79 0.44L1 6.8C0.37 7.25 0 7.99 0 8.77V19.62C0 20.95 1.05 22.03 2.35 22.03H19.93C21.22 22.03 22.28 20.95 22.28 19.62V8.77C22.28 7.99 21.91 7.25 21.28 6.8L12.49 0.44C12.09 0.15 11.62 0 11.14 0Z" fill="#D2DCF7"/>
<path d="M13.1 13.76C13.75 13.76 14.27 14.28 14.27 14.93V20.64H8.28003V14.93C8.28003 14.28 8.80003 13.76 9.45003 13.76H13.1ZM13.1 12.51H9.45003C8.12003 12.51 7.03003 13.6 7.03003 14.93V20.64V21.89H8.28003H14.27H15.52V20.64V14.93C15.52 13.59 14.43 12.51 13.1 12.51Z" fill="#D2DCF7"/>
<path fill-rule="evenodd" clip-rule="evenodd" d="M7.88501 9.67999C7.88501 9.33481 8.16483 9.05499 8.51001 9.05499H14.04C14.3852 9.05499 14.665 9.33481 14.665 9.67999C14.665 10.0252 14.3852 10.305 14.04 10.305H8.51001C8.16483 10.305 7.88501 10.0252 7.88501 9.67999Z" fill="#8F73F8"/>
</g>
<defs>
<clipPath id="clip0">
<rect width="22.27" height="22.03" fill="white"/>
</clipPath>
</defs>
</svg>
