<svg width="33" height="33" viewBox="0 0 33 33" fill="none" xmlns="http://www.w3.org/2000/svg">
<path opacity="0.3" d="M31.75 16.5C31.75 24.9223 24.9223 31.75 16.5 31.75C8.07766 31.75 1.25 24.9223 1.25 16.5C1.25 8.07766 8.07766 1.25 16.5 1.25C24.9223 1.25 31.75 8.07766 31.75 16.5Z" stroke="#A3A6DA" stroke-width="2.5"/>
<path d="M1.76963 20.447C1.16421 18.1875 1.08668 15.8191 1.54302 13.5249C1.99937 11.2307 2.97737 9.07217 4.40136 7.21639C5.82535 5.36061 7.65717 3.85728 9.7551 2.82269C11.853 1.78811 14.1608 1.25 16.5 1.25" stroke="#F57B7B" stroke-width="2.5" stroke-linecap="round"/>
<path d="M16.5 22.8461C12.9952 22.8461 10.1539 20.0048 10.1539 16.5C10.1539 12.9951 12.9952 10.1538 16.5 10.1538C20.0049 10.1538 22.8462 12.9951 22.8462 16.5C22.8462 20.0048 20.0049 22.8461 16.5 22.8461Z" fill="#F57B7B"/>
<path d="M20.1193 15.5608C19.8705 15.326 19.4686 15.326 19.2197 15.5608L16.4828 18.1566L13.7459 15.5608C13.4786 15.3436 13.0754 15.3732 12.8463 15.6267C12.6416 15.853 12.6416 16.1877 12.8463 16.4139L16.0362 19.4394C16.285 19.6742 16.6869 19.6742 16.9358 19.4394L20.1256 16.4139C20.3713 16.1761 20.3687 15.795 20.1193 15.5608Z" fill="#140B47"/>
</svg>
