<svg width="22" height="22" viewBox="0 0 22 22" fill="none" xmlns="http://www.w3.org/2000/svg">
<g opacity="0.8">
<path d="M4.39 9.04999V20.75H1.25V9.04999H4.39ZM4.64 7.79999H1C0.45 7.79999 0 8.24999 0 8.79999V21C0 21.55 0.45 22 1 22H4.64C5.19 22 5.64 21.55 5.64 21V8.79999C5.64 8.24999 5.2 7.79999 4.64 7.79999Z" fill="#D2DCF7"/>
<path d="M12.59 13.58V20.75H9.45001V13.58H12.59ZM12.84 12.33H9.20001C8.65001 12.33 8.20001 12.78 8.20001 13.33V21C8.20001 21.55 8.65001 22 9.20001 22H12.84C13.39 22 13.84 21.55 13.84 21V13.33C13.84 12.78 13.4 12.33 12.84 12.33Z" fill="#D2DCF7"/>
<path d="M20.75 9.04999V20.75H17.65V9.04999H20.75ZM21 7.79999H17.4C16.85 7.79999 16.4 8.24999 16.4 8.79999V21C16.4 21.55 16.85 22 17.4 22H21C21.55 22 22 21.55 22 21V8.79999C22 8.24999 21.55 7.79999 21 7.79999Z" fill="#D2DCF7"/>
<path fill-rule="evenodd" clip-rule="evenodd" d="M1.44019 1.64845C1.63987 1.36689 2.02999 1.30051 2.31155 1.50019L10.7115 7.45721L10.7211 7.46461C10.8795 7.58649 11.0981 7.58362 11.2549 7.45571L11.272 7.4418L19.69 1.50912C19.9721 1.31028 20.362 1.37781 20.5609 1.65995C20.7597 1.9421 20.6922 2.33203 20.41 2.53087L12.026 8.43963C11.4273 8.91391 10.5838 8.92833 9.96968 8.46359L1.58845 2.51981C1.30689 2.32013 1.24051 1.93001 1.44019 1.64845Z" fill="#8F73F8"/>
<path d="M11 10.08C12.2979 10.08 13.35 9.02787 13.35 7.73C13.35 6.43214 12.2979 5.38 11 5.38C9.70213 5.38 8.64999 6.43214 8.64999 7.73C8.64999 9.02787 9.70213 10.08 11 10.08Z" fill="#8F73F8"/>
<path d="M19.65 4.7C20.9479 4.7 22 3.64787 22 2.35C22 1.05213 20.9479 0 19.65 0C18.3521 0 17.3 1.05213 17.3 2.35C17.3 3.64787 18.3521 4.7 19.65 4.7Z" fill="#8F73F8"/>
<path d="M2.35 4.7C3.64787 4.7 4.7 3.64787 4.7 2.35C4.7 1.05213 3.64787 0 2.35 0C1.05213 0 0 1.05213 0 2.35C0 3.64787 1.05213 4.7 2.35 4.7Z" fill="#8F73F8"/>
</g>
</svg>
