<svg width="27" height="23" viewBox="0 0 27 23" fill="none" xmlns="http://www.w3.org/2000/svg">
<g opacity="0.8" clip-path="url(#clip0)">
<path d="M25.71 8.85999L24.2 8.54999C23.7 8.44999 23.24 8.18999 22.94 7.77999C22.07 6.59999 20.84 5.58999 19.38 4.87999H19.37C19.29 4.83999 19.22 4.78999 19.13 4.75999C19.04 4.72999 18.95 4.72999 18.86 4.74999C18.85 4.74999 18.84 4.75999 18.83 4.75999C18.78 5.03999 18.69 5.31999 18.58 5.56999C18.55 5.62999 18.53 5.69999 18.5 5.74999C18.53 5.79999 18.58 5.83999 18.63 5.87999C18.67 5.90999 18.73 5.93999 18.79 5.95999C20.07 6.58999 21.16 7.45999 21.93 8.51999C22.4 9.14999 23.12 9.59999 23.95 9.76999L25.45 10.09C25.6 10.12 25.71 10.25 25.71 10.4V13.55C25.71 13.7 25.6 13.83 25.45 13.87L23.9 14.19C23.09 14.36 22.4 14.8 21.94 15.43C21.6 15.9 21.19 16.33 20.74 16.72C20.2 17.18 19.89 17.8 19.84 18.47L19.65 21.22H17.09L17.01 19.7C16.98 18.98 16.39 18.41 15.66 18.41H15.56L15.47 18.43C14.89 18.51 14.31 18.55 13.75 18.55C13.07 18.55 12.36 18.49 11.65 18.36L11.53 18.34H11.42C10.7 18.34 10.11 18.91 10.07 19.62L9.99 21.22H7.43L7.21 18.06C7.17 17.44 6.89 16.85 6.42 16.41C5.08 15.12 4.38 13.59 4.38 11.98C4.38 11.3 4.5 10.65 4.74 10.03L4.83 9.79999V9.78999C5.49 8.23999 6.87 6.89999 8.62 6.01999C8.66 5.99999 8.69 5.98999 8.73 5.95999C8.76 5.93999 8.79001 5.91999 8.81001 5.88999C8.71001 5.68999 8.45 5.05999 8.37 4.79999C8.33 4.79999 8.28 4.79999 8.24 4.80999C8.14 4.85999 8.04 4.89999 7.94 4.96999C7.93 4.96999 7.93 4.97999 7.92 4.97999C5.89 6.00999 4.35 7.59999 3.61 9.47999C3.61 9.48999 3.61 9.49999 3.6 9.50999V9.51999C3.29 10.3 3.13 11.12 3.13 11.98C3.13 12.25 3.15 12.52 3.18 12.78C3.38 14.49 4.24 16.05 5.56 17.31C5.79 17.53 5.94 17.82 5.97 18.15L6.2 21.55C6.24 22.07 6.67 22.47 7.19 22.47H10.24C10.76 22.47 11.19 22.07 11.23 21.55L11.32 19.69C11.32 19.63 11.37 19.59 11.42 19.59C11.42 19.59 11.43 19.59 11.44 19.59C12.18 19.72 12.96 19.8 13.75 19.8C14.4 19.8 15.03 19.75 15.65 19.66C15.66 19.66 15.66 19.66 15.66 19.66C15.72 19.66 15.76 19.7 15.76 19.76L15.85 21.55C15.89 22.07 16.32 22.47 16.84 22.47H19.89C20.41 22.47 20.84 22.07 20.88 21.55L21.09 18.56C21.11 18.21 21.28 17.9 21.55 17.67C22.08 17.22 22.55 16.71 22.95 16.17C23.23 15.77 23.67 15.52 24.15 15.42L25.71 15.09C26.44 14.94 26.96 14.29 26.96 13.55V10.4C26.96 9.65999 26.44 9.01999 25.71 8.85999Z" fill="#D2DCF7"/>
<path d="M4.83 9.79V9.8L4.74 10.03C4.18 11.15 3.67 12.05 3.18 12.78C2.38 13.95 1.64 14.65 0.879995 15C0.789995 15.04 0.709995 15.05 0.619995 15.05C0.379995 15.05 0.159995 14.92 0.0499954 14.68C-0.0900046 14.37 0.0499954 14 0.359995 13.86C1.56 13.32 2.71 11.29 3.6 9.52V9.51C3.61 9.5 3.61 9.49 3.61 9.48C3.63 9.44 3.65 9.41 3.67 9.37C3.82 9.07 4.2 8.94 4.51 9.09C4.78 9.23 4.9 9.52 4.83 9.79Z" fill="#D2DCF7"/>
<path d="M21.04 10.11C21.04 10.77 20.51 11.29 19.86 11.29C19.21 11.29 18.68 10.77 18.68 10.11C18.68 9.46 19.21 8.94 19.86 8.94C20.51 8.95 21.04 9.47 21.04 10.11Z" fill="#D2DCF7"/>
<path d="M9.00998 5.41999C9.00998 5.60999 8.92998 5.76999 8.80998 5.87999C8.78998 5.91999 8.75998 5.93999 8.72998 5.95999C8.68998 5.98999 8.65998 5.99999 8.61998 6.01999C8.53998 6.04999 8.45998 6.06999 8.36998 6.06999C8.01998 6.06999 7.72998 5.78999 7.72998 5.42999C7.72998 5.25999 7.79998 5.09999 7.91998 4.97999C7.92998 4.97999 7.92998 4.96999 7.93998 4.96999C8.03998 4.89999 8.13998 4.85999 8.23998 4.80999C8.27998 4.79999 8.32998 4.79999 8.36998 4.79999C8.71998 4.79999 9.00998 5.07999 9.00998 5.41999Z" fill="#D2DCF7"/>
<path d="M19.61 5.23999C19.64 5.39999 19.61 5.56999 19.52 5.70999C19.51 5.70999 19.51 5.71999 19.5 5.72999C19.42 5.80999 19.33 5.86999 19.25 5.93999C19.21 5.95999 19.16 5.96999 19.12 5.97999C19.01 5.99999 18.89 5.98999 18.79 5.95999C18.73 5.93999 18.67 5.90999 18.63 5.87999C18.58 5.83999 18.53 5.79999 18.5 5.74999C18.44 5.67999 18.4 5.59999 18.38 5.49999C18.34 5.31999 18.38 5.13999 18.47 5.00999C18.49 4.97999 18.51 4.94999 18.54 4.92999C18.57 4.88999 18.59 4.86999 18.63 4.84999C18.69 4.80999 18.75 4.77999 18.83 4.75999C18.84 4.75999 18.85 4.74999 18.86 4.74999C18.95 4.72999 19.04 4.72999 19.13 4.75999C19.22 4.78999 19.29 4.83999 19.37 4.87999H19.38C19.5 4.96999 19.58 5.08999 19.61 5.23999Z" fill="#D2DCF7"/>
<path d="M17.1 3.5V3.53C17.1 3.98 17.01 4.41 16.84 4.8C16.33 6.09 15.07 7 13.6 7C12.09 7 10.8 6.04 10.32 4.7C10.18 4.32 10.11 3.92 10.11 3.5V3.43C10.14 1.52 11.69 0 13.6 0C15.53 0 17.1 1.56 17.1 3.5Z" fill="#8F73F8"/>
</g>
<defs>
<clipPath id="clip0">
<rect width="26.96" height="22.47" fill="white"/>
</clipPath>
</defs>
</svg>
